<svg id="LOGO" xmlns="http://www.w3.org/2000/svg" xmlns:xlink="http://www.w3.org/1999/xlink" viewBox="0 0 120 51"><defs><linearGradient id="linear-gradient" x1="24.48" y1="16.25" x2="30.49" y2="-0.99" gradientUnits="userSpaceOnUse"><stop offset="0" stop-color="#c0e1c5"/><stop offset="1" stop-color="#fff"/></linearGradient><linearGradient id="linear-gradient-2" x1="20.4" y1="15.55" x2="14.52" y2="-2.16" gradientUnits="userSpaceOnUse"><stop offset="0" stop-color="#a1ba8b"/><stop offset="1" stop-color="#fff"/></linearGradient><linearGradient id="linear-gradient-3" x1="21.27" y1="20.6" x2="0.99" y2="23.02" gradientUnits="userSpaceOnUse"><stop offset="0" stop-color="#b2d1b1"/><stop offset="0.2" stop-color="#bbd6ba"/><stop offset="0.53" stop-color="#d2e4d1"/><stop offset="0.93" stop-color="#f8fbf8"/><stop offset="1" stop-color="#fff"/></linearGradient><linearGradient id="linear-gradient-4" x1="28.29" y1="34.56" x2="26.76" y2="46.26" gradientUnits="userSpaceOnUse"><stop offset="0" stop-color="#58bd7b"/><stop offset="1" stop-color="#3f905e"/></linearGradient><linearGradient id="linear-gradient-5" x1="22.29" y1="19.72" x2="17.4" y2="9.94" gradientUnits="userSpaceOnUse"><stop offset="0" stop-color="#58bd7b"/><stop offset="0.12" stop-color="#52b274"/><stop offset="0.4" stop-color="#479f68"/><stop offset="0.69" stop-color="#419460"/><stop offset="1" stop-color="#3f905e"/></linearGradient><linearGradient id="linear-gradient-6" x1="21.81" y1="24.89" x2="10.89" y2="18.65" xlink:href="#linear-gradient-5"/><linearGradient id="linear-gradient-7" x1="27.19" y1="20.28" x2="19.86" y2="39.15" xlink:href="#linear-gradient-5"/></defs><title>colibra_logo</title><path d="M45.49,29a2.44,2.44,0,0,0-2.13,1.13,5.39,5.39,0,0,0-.77,3.09q0,4.1,3.12,4.09a6.21,6.21,0,0,0,1.82-.26,16.5,16.5,0,0,0,1.78-.63v3.24a9.78,9.78,0,0,1-4,.79,6.37,6.37,0,0,1-4.93-1.86,7.72,7.72,0,0,1-1.71-5.39,8.69,8.69,0,0,1,.83-3.88,5.92,5.92,0,0,1,2.39-2.56,7.2,7.2,0,0,1,3.66-.9,10,10,0,0,1,4.4,1l-1.18,3a10.88,10.88,0,0,0-1.57-.62A5.44,5.44,0,0,0,45.49,29Z" fill="#57bc7a"/><path d="M62.36,34.74A5.82,5.82,0,0,1,60.9,39a5.34,5.34,0,0,1-4.06,1.51,5.24,5.24,0,0,1-4-1.54,5.77,5.77,0,0,1-1.48-4.18,5.74,5.74,0,0,1,1.45-4.18,5.41,5.41,0,0,1,4.07-1.49,5.77,5.77,0,0,1,2.86.69,4.7,4.7,0,0,1,1.92,2A6.35,6.35,0,0,1,62.36,34.74Zm-7.13,0a4.89,4.89,0,0,0,.38,2.16,1.31,1.31,0,0,0,1.27.74,1.27,1.27,0,0,0,1.25-.74,5.08,5.08,0,0,0,.36-2.16,4.68,4.68,0,0,0-.37-2.12,1.29,1.29,0,0,0-1.26-.72,1.31,1.31,0,0,0-1.25.71A4.74,4.74,0,0,0,55.23,34.74Z" fill="#57bc7a"/><path d="M64.74,40.27V26.07h3.84v11.1H74v3.1Z" fill="#828282"/><path d="M76,26.53a1.59,1.59,0,0,1,.47-1.27,3,3,0,0,1,3.08,0,1.59,1.59,0,0,1,.48,1.26c0,1.11-.67,1.67-2,1.67S76,27.64,76,26.53Zm3.89,13.74h-3.8v-11h3.8Z" fill="#828282"/><path d="M89.28,29.07a3.31,3.31,0,0,1,2.85,1.51,7.17,7.17,0,0,1,1.05,4.16,7.21,7.21,0,0,1-1.06,4.2,3.43,3.43,0,0,1-3,1.52,4,4,0,0,1-1.09-.13,3.27,3.27,0,0,1-.85-.37,4.27,4.27,0,0,1-.87-.77h-.23l-.6,1.08h-3V25.16h3.79v3.42c0,.4,0,1.11-.13,2.1h.13a3.47,3.47,0,0,1,1.28-1.23A3.52,3.52,0,0,1,89.28,29.07Zm-1.39,3a1.32,1.32,0,0,0-1.17.56,3.2,3.2,0,0,0-.37,1.73v.54a3.83,3.83,0,0,0,.37,1.93,1.31,1.31,0,0,0,1.21.59,1.13,1.13,0,0,0,1-.68,4.48,4.48,0,0,0,.36-2C89.32,32.94,88.84,32.05,87.89,32.05Z" fill="#828282"/><path d="M102,29.07a5.67,5.67,0,0,1,.94.08l.21,0-.34,3.58a5.41,5.41,0,0,0-1.29-.12,2.47,2.47,0,0,0-1.81.57,2.26,2.26,0,0,0-.56,1.64v5.41h-3.8v-11h2.83L98.76,31H99a3.8,3.8,0,0,1,1.32-1.41A3.19,3.19,0,0,1,102,29.07Z" fill="#828282"/><path d="M111.85,40.27l-.73-1.46H111a4.32,4.32,0,0,1-1.56,1.3,5.23,5.23,0,0,1-2.06.35,3.22,3.22,0,0,1-2.44-.93,3.62,3.62,0,0,1-.9-2.62,3,3,0,0,1,1.23-2.62,6.75,6.75,0,0,1,3.54-1l1.83,0v-.16a1.19,1.19,0,0,0-1.34-1.36,7.87,7.87,0,0,0-3,.82l-1.1-2.51a10.54,10.54,0,0,1,4.85-1,4.72,4.72,0,0,1,3.28,1.05,3.77,3.77,0,0,1,1.16,2.93v7.22ZM109,37.78a1.71,1.71,0,0,0,1.18-.44,1.43,1.43,0,0,0,.49-1.13v-.86l-.87,0c-1.25,0-1.87.51-1.87,1.38C108,37.44,108.32,37.78,109,37.78Z" fill="#828282"/><path d="M24,24.5C21.49,16,20.43,9.83,27.53,2.16c.42-.45.74-.71.86-.5C31.69,7.15,28.06,21.36,24,24.5Z" fill-rule="evenodd" fill="url(#linear-gradient)"/><path d="M24.53,29.07c-7.06-8.21-11.4-14.62-7.37-26.81.25-.73.47-1.18.71-1C19.64,2.46,30.17,23.57,24.53,29.07Z" fill-rule="evenodd" fill="url(#linear-gradient-2)"/><path d="M29.72,30.14C17.22,29,8.44,27.19,2,13.8c-.39-.8-.56-1.35-.23-1.41.93-.16,5.38,1.72,9.7,3.24C21.87,19.33,26.34,23.94,29.72,30.14Z" fill-rule="evenodd" fill="url(#linear-gradient-3)"/><path d="M36.55,13a.67.67,0,0,1,.67.67.68.68,0,0,1-.68.67.66.66,0,0,1-.66-.68.66.66,0,0,1,.67-.66Zm10.39,8.44c.5,0-4.35-3-6.79-5.76-1.61-1.8-1.72-3.84-2.46-4.5-3.32-2.92-9.21-1.68-11.29,4-1.1.23-2.84-.25-4.71-1.12A65.22,65.22,0,0,1,7.5,4.3c-1.55-1.48-1.79,6.84,5,15.26,5.33,6.59,10.6,6.57,10.06,7.18-1,1.1-3.11,13.84-1,23,1.26.51,4.71-8,4.7-8.9,0-3.91-.22-5.61,1.61-6.65,9.07-5.12,6.4-10.48,6-13.63-.42-3.68,3.85-3.77,6.43-2.72A41.43,41.43,0,0,1,46.94,21.47Z" fill="#57bc7a" fill-rule="evenodd"/><path d="M24.33,44.91a13.81,13.81,0,0,1-1.22-5.72A14,14,0,0,1,34.17,25.5c-.18,2.6-1.56,5.55-6.66,8.43-1.84,1-1.65,2.74-1.61,6.65A21.56,21.56,0,0,1,24.33,44.91Z" fill-rule="evenodd" fill="url(#linear-gradient-4)"/><path d="M24.53,29.07c-.68-.79-1.33-1.56-2-2.33.1-.11,0-.2-.27-.32-4-5-6.76-9.64-6.69-15.81a48.34,48.34,0,0,0,6.07,3.53,14.6,14.6,0,0,0,2.83,1C26.31,20.8,27.11,26.56,24.53,29.07Z" fill-rule="evenodd" fill="url(#linear-gradient-5)"/><path d="M29.72,30.14c-2.82-.26-5.46-.55-7.92-1a7.57,7.57,0,0,1,.78-2.4c.54-.61-4.73-.59-10.06-7.18A31.3,31.3,0,0,1,9.4,14.9c.67.25,1.35.5,2,.73C21.87,19.33,26.34,23.94,29.72,30.14Z" fill-rule="evenodd" fill="url(#linear-gradient-6)"/><path d="M21.13,38.83c.38-10.35,7.09-12,8.29-21.21A25.54,25.54,0,0,1,25.34,24a16,16,0,0,0-2.5,3C22.22,28.28,21.3,33.2,21.13,38.83Z" fill-rule="evenodd" fill="url(#linear-gradient-7)"/></svg>