<svg id="LOGO" xmlns="http://www.w3.org/2000/svg" viewBox="0 0 42 42"><title>ic_account</title><path d="M21.9,38.72A17.75,17.75,0,0,0,38.72,21.89V20.11A17.73,17.73,0,0,0,21.9,3.29H20.13A17.75,17.75,0,0,0,3.28,20.11v1.78A17.75,17.75,0,0,0,20.13,38.72ZM10.63,33.14a1.15,1.15,0,0,1,.72-.78h0c1.38-.38,2.41-.74,3-1a7.71,7.71,0,0,0,3.48-2.14l.9,2.39-.71,5.08a16,16,0,0,1-7.46-3.56Zm15.55-16a2.73,2.73,0,0,0-1.92-.74,7.63,7.63,0,0,0-3.09.94,9.34,9.34,0,0,1-4,.94,8.23,8.23,0,0,1-2-.23c.12-.32.25-.68.4-1.05,1-2.34,1.67-2.81,1.75-2.86A7.15,7.15,0,0,1,21.11,13a5.31,5.31,0,0,1,3.17.88,6.17,6.17,0,0,1,1.9,3.2ZM15.93,19.93a9.26,9.26,0,0,0,1.22.08,11,11,0,0,0,4.77-1.11,6.38,6.38,0,0,1,2.34-.77c.77,0,.95.59,1.48,1.39a2.12,2.12,0,0,0,.36.38,7.19,7.19,0,0,1,.06.94,7.9,7.9,0,0,1-2.05,4.94A5.42,5.42,0,0,1,21,27.88a5.4,5.4,0,0,1-3.1-2.1,7.9,7.9,0,0,1-2.05-4.94A6.84,6.84,0,0,1,15.93,19.93Zm4.6,12.17h1l.67,4.82c-.39,0-.78,0-1.18,0s-.77,0-1.15,0Zm1.58-2.55-.29.77H20.21l-.29-.77h.33a2.72,2.72,0,0,0,1.53,0Zm1.83,7.14-.71-5.07.9-2.39a7.71,7.71,0,0,0,3.48,2.14,31,31,0,0,0,3,1h0a1.16,1.16,0,0,1,.72.76,15.76,15.76,0,0,1-7.45,3.58ZM5.06,20.11a15.7,15.7,0,0,1,1.23-5.32,16,16,0,0,1,8.5-8.5,15.81,15.81,0,0,1,5.34-1.23H21.9a16,16,0,0,1,13.81,9.73,15.7,15.7,0,0,1,1.23,5.32v1.78a15.87,15.87,0,0,1-4.21,9.93,3,3,0,0,0-1.51-1.16l-.08,0a28,28,0,0,1-2.89-.93c-2.08-.8-2.62-1.38-2.76-1.65l0,0v-1.1a9.76,9.76,0,0,0,2.46-6.09,8.7,8.7,0,0,0-2.46-8.27,6.94,6.94,0,0,0-4.36-1.33,9,9,0,0,0-4.69,1.33c-2,1.2-3.44,6.51-3.44,6.51a6.73,6.73,0,0,0,1.21.49,8.73,8.73,0,0,0-.09,1.27,9.72,9.72,0,0,0,2.47,6.09V28l0,0c-.13.27-.68.85-2.75,1.65-.59.23-1.57.57-2.88.93l-.09,0a2.9,2.9,0,0,0-1.53,1.19,15.93,15.93,0,0,1-3-4.64,15.7,15.7,0,0,1-1.23-5.32Z" fill="#58bd7b"/></svg>