<svg id="LOGO" xmlns="http://www.w3.org/2000/svg" viewBox="0 0 42 42"><title>ic_pin_hospital_selected</title><path d="M32.31,17a11.59,11.59,0,0,0-23.18-.27h0a1,1,0,0,0,0,.17V17c0,.11,0,.23,0,.34.13,7.54,8.64,15.49,11.58,18.32C29,28.94,31.35,22.75,32,19.45c0-.12.05-.23.07-.35.07-.35.11-.67.14-1h0A7,7,0,0,0,32.31,17Z" fill="#ffe080"/><rect width="42" height="42" fill="none"/><path d="M20.72,10.06a6.95,6.95,0,1,0,7,6.94A6.95,6.95,0,0,0,20.72,10.06Zm0,13.29A6.35,6.35,0,1,1,27.06,17,6.36,6.36,0,0,1,20.72,23.35Z" fill="#fff"/><path d="M24.33,15.5H22.22V13.39a.29.29,0,0,0-.3-.3H19.51a.29.29,0,0,0-.3.3V15.5H17.1a.29.29,0,0,0-.3.3v2.41a.29.29,0,0,0,.3.3h2.11v2.11a.29.29,0,0,0,.3.3h2.41a.29.29,0,0,0,.3-.3V18.51h2.11a.3.3,0,0,0,.31-.3V15.8A.33.33,0,0,0,24.33,15.5ZM24,17.91H21.92a.3.3,0,0,0-.3.3v2.11H19.81V18.21a.29.29,0,0,0-.3-.3H17.4V16.1h2.11a.29.29,0,0,0,.3-.3V13.69h1.83V15.8a.29.29,0,0,0,.3.3h2.11v1.81Z" fill="#fff"/></svg>