<svg id="LOGO" xmlns="http://www.w3.org/2000/svg" viewBox="0 0 14 14"><title>ic_small_star_empty</title><path d="M4,12.72a1.09,1.09,0,0,1-.64-.21,1.07,1.07,0,0,1-.43-1.06L3.39,8.7l-2-2A1.09,1.09,0,0,1,2,4.83l2.75-.4L6,1.89a1.06,1.06,0,0,1,1-.61,1.08,1.08,0,0,1,1,.61H8L9.21,4.38,12,4.83a1.06,1.06,0,0,1,.87.74,1.08,1.08,0,0,1-.27,1.12l-2,1.94.44,2.82a1.09,1.09,0,0,1-.43,1.06,1.11,1.11,0,0,1-1.15.08L7,11.3,4.5,12.59A1,1,0,0,1,4,12.72Zm3-2.43a1.16,1.16,0,0,1,.51.12L10,11.71l.62-.18-.5.08L9.62,8.87a1.11,1.11,0,0,1,.32-1l2-1.94,0-.15-2.75-.4a1.06,1.06,0,0,1-.82-.6L7.08,2.33A.1.1,0,0,0,7,2.28L5.69,4.83a1.08,1.08,0,0,1-.82.59l-2.75.4-.4.51L2.07,6l2,1.94a1.08,1.08,0,0,1,.32,1L3.9,11.61l.13.1,2.46-1.3A1.16,1.16,0,0,1,7,10.29Z" fill="#8fc33f"/></svg>