<svg id="LOGO" xmlns="http://www.w3.org/2000/svg" xmlns:xlink="http://www.w3.org/1999/xlink" viewBox="0 0 24 24"><defs><clipPath id="clip-path"><rect x="2.15" y="1.8" width="19.7" height="21.99" fill="none"/></clipPath></defs><title>ic_small_notification</title><g clip-path="url(#clip-path)"><path d="M21.48,19.76c-2.34-1.05-2.42-5.58-2.43-5.69V11a7.06,7.06,0,0,0-4.32-6.5,2.74,2.74,0,0,0-5.47,0A7.07,7.07,0,0,0,4.94,11v3c0,.11-.09,4.64-2.42,5.69a.63.63,0,0,0-.36.7.64.64,0,0,0,.61.49H8.69a3.51,3.51,0,0,0,.92,1.79,3.28,3.28,0,0,0,4.77,0A3.43,3.43,0,0,0,15.3,21h5.92a.62.62,0,0,0,.61-.49.63.63,0,0,0-.35-.7ZM18.4,17.59a7,7,0,0,0,1.09,2.12H4.5a6.57,6.57,0,0,0,1.09-2.12ZM12,3a1.49,1.49,0,0,1,1.43,1.08A7.46,7.46,0,0,0,12,4a7.64,7.64,0,0,0-1.44.14A1.51,1.51,0,0,1,12,3Zm-5.82,11V11a5.82,5.82,0,1,1,11.63,0v3.05a13,13,0,0,0,.27,2.28H5.92a13.55,13.55,0,0,0,.26-2.29ZM12,22.54A2.19,2.19,0,0,1,10,21H14a2.18,2.18,0,0,1-2,1.59Zm0,0" fill="#6c6c6c"/></g><path d="M12,6.08a4.84,4.84,0,0,0-4.84,4.84.62.62,0,1,0,1.24,0A3.6,3.6,0,0,1,12,7.32a.62.62,0,0,0,.62-.62A.62.62,0,0,0,12,6.08Zm0,0" fill="#6c6c6c"/></svg>