<svg id="LOGO" xmlns="http://www.w3.org/2000/svg" viewBox="0 0 42 42"><title>ic_task_flight</title><path d="M6.84,14.3a.69.69,0,0,1,.75.19l6.26,7.17,10.2-3.78,6.82-2.54a4.83,4.83,0,0,1,4.59.72l1.59,1.22a2.66,2.66,0,0,1,1,2.49,2.56,2.56,0,0,1-1.68,2.07l-5.63,2.09.21.52A1.3,1.3,0,0,1,30,26.21l-2.56.56A2.26,2.26,0,0,1,25.23,26l-1,.39-5.67,2.1a1.82,1.82,0,0,1-.86.12l-10.38-.8a1.41,1.41,0,0,1-.46-.11,1.39,1.39,0,0,1-.72-.75l-.33-.84a1.29,1.29,0,0,1,.75-1.71l1.21-.44L4,16.13a.65.65,0,0,1,0-.53.63.63,0,0,1,.38-.37ZM27.15,25.48l2.57-.56-.91-2.29-2.29,1.24a.84.84,0,0,0-.39,1.06A.9.9,0,0,0,27.15,25.48ZM9.26,24a.65.65,0,0,1,0,.53.69.69,0,0,1-.38.37L7,25.62l.34.85,10.4.8a.63.63,0,0,0,.27,0l5.67-2.1,1-.39a2.13,2.13,0,0,1,1.11-2l2.29-1.25a1.37,1.37,0,0,1,1.92.7l.21.53L35.9,20.6a1.32,1.32,0,0,0,.84-1,1.36,1.36,0,0,0-.51-1.24l-.76-.59-2.84,1.06a.68.68,0,0,1-.86-.39.65.65,0,0,1,.37-.85l2-.76a3.47,3.47,0,0,0-2.8-.21L27.67,18l.49,1.24a.63.63,0,0,1-.09.66.68.68,0,0,1-.63.23.69.69,0,0,1-.53-.43l-.49-1.24-1.25.47.49,1.24a.63.63,0,0,1-.09.66.68.68,0,0,1-.63.23.69.69,0,0,1-.53-.43l-.49-1.24-1.25.46.49,1.25a.66.66,0,0,1-.09.66.69.69,0,0,1-.64.23.66.66,0,0,1-.52-.43l-.49-1.24-1.26.46L20.65,22a.65.65,0,0,1-.09.67.68.68,0,0,1-.63.23.69.69,0,0,1-.53-.43l-.49-1.24-1.25.46.49,1.24a.65.65,0,0,1-.72.9.69.69,0,0,1-.53-.43l-.49-1.24-2.51.93a.69.69,0,0,1-.75-.19L6.89,15.71l-1.39.51Z" fill="#7f7f7f"/></svg>