<svg id="LOGO" xmlns="http://www.w3.org/2000/svg" viewBox="0 0 42 42"><title>ic_trainings</title><path d="M37.09,34.86H33.3V14.73a.85.85,0,0,0-.85-.85H27.68a.85.85,0,0,0-.85.85V34.86H24.24V21.66a.85.85,0,0,0-.85-.85H18.61a.85.85,0,0,0-.85.85v13.2H15.17V27.34a.85.85,0,0,0-.85-.85H9.55a.85.85,0,0,0-.85.85v7.52H4.91a.85.85,0,1,0,0,1.7H37.09a.85.85,0,1,0,0-1.7Zm-26.69,0V28.19h3.07v6.67Zm9.06,0V22.51h3.08V34.86Zm9.07,0V15.58H31.6V34.86Z" fill="#58bd7b"/><path d="M7.15,18.5a1,1,0,0,0,.28,0l7.73-2.69a.92.92,0,0,0,.3-.18l5.73-5.32,6.71.23a.81.81,0,0,0,.4-.09l6.92-3.36a.84.84,0,0,0,.4-1.13.86.86,0,0,0-1.14-.4L27.74,8.79l-6.85-.23a.83.83,0,0,0-.6.22l-5.86,5.44L6.87,16.85a.85.85,0,0,0-.53,1.08A.87.87,0,0,0,7.15,18.5Z" fill="#58bd7b"/></svg>