<svg id="LOGO" xmlns="http://www.w3.org/2000/svg" xmlns:xlink="http://www.w3.org/1999/xlink" viewBox="0 0 90.8 43.83"><defs><linearGradient id="linear-gradient" x1="20.93" y1="15.72" x2="25.39" y2="2.92" gradientUnits="userSpaceOnUse"><stop offset="0" stop-color="#231f20" stop-opacity="0.2"/><stop offset="1" stop-color="#fff"/></linearGradient><linearGradient id="linear-gradient-2" x1="17.89" y1="15.2" x2="13.53" y2="2.04" xlink:href="#linear-gradient"/><linearGradient id="linear-gradient-3" x1="18.54" y1="18.96" x2="3.47" y2="20.75" xlink:href="#linear-gradient"/><linearGradient id="linear-gradient-4" x1="19.3" y1="18.3" x2="15.67" y2="11.04" xlink:href="#linear-gradient"/><linearGradient id="linear-gradient-5" x1="18.94" y1="22.14" x2="10.83" y2="17.51" xlink:href="#linear-gradient"/></defs><title>colibra_logo_footer</title><path d="M36.54,25.21A1.83,1.83,0,0,0,35,26a4,4,0,0,0-.57,2.3c0,2,.77,3,2.32,3a4.74,4.74,0,0,0,1.35-.19,13.9,13.9,0,0,0,1.32-.47v2.41a7.27,7.27,0,0,1-3,.58,4.74,4.74,0,0,1-3.67-1.38,5.78,5.78,0,0,1-1.27-4,6.35,6.35,0,0,1,.62-2.87,4.37,4.37,0,0,1,1.77-1.91,5.31,5.31,0,0,1,2.73-.67,7.54,7.54,0,0,1,3.26.74L39,25.86a8.1,8.1,0,0,0-1.17-.46A3.94,3.94,0,0,0,36.54,25.21Z" fill="#dcdbdb"/><path d="M49.07,29.46A4.33,4.33,0,0,1,48,32.59a4,4,0,0,1-3,1.12,3.89,3.89,0,0,1-3-1.15,4.24,4.24,0,0,1-1.1-3.1A4.25,4.25,0,0,1,42,26.36a4,4,0,0,1,3-1.11,4.36,4.36,0,0,1,2.13.51,3.47,3.47,0,0,1,1.42,1.47A4.67,4.67,0,0,1,49.07,29.46Zm-5.3,0a3.6,3.6,0,0,0,.28,1.61,1,1,0,0,0,1,.55.94.94,0,0,0,.92-.55,3.77,3.77,0,0,0,.27-1.61,3.65,3.65,0,0,0-.27-1.58,1,1,0,0,0-.94-.53,1,1,0,0,0-.93.53A3.43,3.43,0,0,0,43.77,29.46Z" fill="#dcdbdb"/><path d="M50.84,33.57V23h2.85v8.25h4.06v2.3Z" fill="#dcdbdb"/><path d="M59.21,23.36a1.16,1.16,0,0,1,.36-.94,1.67,1.67,0,0,1,1.14-.31,1.71,1.71,0,0,1,1.14.31,1.21,1.21,0,0,1,.36.94c0,.83-.5,1.24-1.5,1.24S59.21,24.19,59.21,23.36Zm2.9,10.21H59.29V25.4h2.82Z" fill="#dcdbdb"/><path d="M69.07,25.25a2.43,2.43,0,0,1,2.11,1.12A5.33,5.33,0,0,1,72,29.46a5.41,5.41,0,0,1-.79,3.12A2.52,2.52,0,0,1,69,33.71a2.9,2.9,0,0,1-.81-.1,2.22,2.22,0,0,1-.63-.27,3,3,0,0,1-.64-.57h-.18l-.45.8h-2.2V22.34H66.9v2.54c0,.31,0,.83-.11,1.57h.11a2.65,2.65,0,0,1,.94-.92A2.59,2.59,0,0,1,69.07,25.25Zm-1,2.22a.94.94,0,0,0-.86.41,2.38,2.38,0,0,0-.27,1.29v.39A2.86,2.86,0,0,0,67.17,31a1,1,0,0,0,.89.44.83.83,0,0,0,.77-.51,3.31,3.31,0,0,0,.26-1.5C69.09,28.12,68.74,27.47,68,27.47Z" fill="#dcdbdb"/><path d="M78.51,25.25a4,4,0,0,1,.7.06l.16,0L79.11,28a4,4,0,0,0-1-.09,1.84,1.84,0,0,0-1.34.42,1.67,1.67,0,0,0-.42,1.22v4H73.57V25.4h2.1l.44,1.3h.14a2.9,2.9,0,0,1,1-1.05A2.37,2.37,0,0,1,78.51,25.25Z" fill="#dcdbdb"/><path d="M85.84,33.57l-.55-1.08h-.05a3.2,3.2,0,0,1-1.16,1,3.76,3.76,0,0,1-1.53.26A2.4,2.4,0,0,1,80.73,33a2.71,2.71,0,0,1-.66-2,2.21,2.21,0,0,1,.9-1.94,4.94,4.94,0,0,1,2.64-.72l1.36,0v-.12a.89.89,0,0,0-1-1,5.88,5.88,0,0,0-2.28.61L80.89,26a7.82,7.82,0,0,1,3.6-.74,3.52,3.52,0,0,1,2.44.78,2.81,2.81,0,0,1,.86,2.18v5.36Zm-2.1-1.85a1.29,1.29,0,0,0,.88-.32,1.1,1.1,0,0,0,.36-.85v-.63l-.64,0c-.93,0-1.4.37-1.4,1S83.21,31.72,83.74,31.72Z" fill="#dcdbdb"/><path d="M20.53,21.85C18.7,15.57,17.92,11,23.19,5.26c.32-.34.55-.53.64-.38C26.29,9,23.58,19.52,20.53,21.85Z" fill-rule="evenodd" fill="url(#linear-gradient)"/><path d="M21,25.25c-5.25-6.1-8.48-10.86-5.48-19.92.18-.54.35-.87.53-.75C17.33,5.48,25.15,21.16,21,25.25Z" fill-rule="evenodd" fill="url(#linear-gradient-2)"/><path d="M24.82,26C15.53,25.21,9,23.86,4.18,13.91c-.28-.6-.41-1-.16-1.05.69-.12,4,1.27,7.2,2.41C19,18,22.31,21.44,24.82,26Z" fill-rule="evenodd" fill="url(#linear-gradient-3)"/><path d="M29.9,13.33a.5.5,0,1,1-.51.5.5.5,0,0,1,.51-.5Zm7.71,6.27c.37,0-3.23-2.24-5-4.28C31.37,14,31.29,12.47,30.74,12c-2.46-2.17-6.84-1.25-8.39,3a6.47,6.47,0,0,1-3.5-.83A48.49,48.49,0,0,1,8.31,6.85C7.16,5.75,7,11.93,12,18.18c4,4.9,7.87,4.88,7.47,5.34-.71.82-2.31,10.28-.71,17.11.93.38,3.49-5.92,3.49-6.62,0-2.9-.17-4.16,1.19-4.93C30.22,25.27,28.23,21.29,28,19c-.3-2.74,2.87-2.8,4.78-2A30.91,30.91,0,0,1,37.61,19.6Z" fill="#dcdbdb" fill-rule="evenodd"/><path d="M21,25.25c-.51-.59-1-1.16-1.46-1.73.08-.08,0-.15-.19-.24-3-3.72-5-7.16-5-11.74a38.88,38.88,0,0,0,4.51,2.62,10.52,10.52,0,0,0,2.1.75C22.29,19.1,22.88,23.38,21,25.25Z" fill-rule="evenodd" opacity="0.39" fill="url(#linear-gradient-4)"/><path d="M24.82,26c-2.1-.19-4.06-.4-5.89-.74a5.72,5.72,0,0,1,.58-1.78c.4-.46-3.51-.44-7.47-5.34a23.5,23.5,0,0,1-2.32-3.46l1.5.55C19,18,22.31,21.44,24.82,26Z" fill-rule="evenodd" opacity="0.51" fill="url(#linear-gradient-5)"/></svg>