<svg id="LOGO" xmlns="http://www.w3.org/2000/svg" viewBox="0 0 42 42"><title>ic_history</title><path d="M14.49,30.11a3,3,0,1,0,3,3A3,3,0,0,0,14.49,30.11Zm0,4.71a1.7,1.7,0,1,1,1.69-1.7A1.7,1.7,0,0,1,14.49,34.82Z" fill="#58bd7b"/><path d="M23.12,32.57H19.48a.66.66,0,0,0,0,1.32h3.64a.66.66,0,0,0,0-1.32Z" fill="#58bd7b"/><path d="M12.33,11.53h1.92a.67.67,0,0,0,0-1.33H12.33a.67.67,0,0,0,0,1.33Z" fill="#58bd7b"/><path d="M21.66,11.53h5.76a.67.67,0,0,0,0-1.33H21.66a.67.67,0,0,0,0,1.33Z" fill="#58bd7b"/><path d="M17.63,14.37h9.79a.66.66,0,1,0,0-1.32H17.63a.66.66,0,1,0,0,1.32Z" fill="#58bd7b"/><path d="M12,19.6H27.45a.66.66,0,0,0,0-1.32H12a.66.66,0,0,0,0,1.32Z" fill="#58bd7b"/><path d="M12,23.07H27.45a.66.66,0,0,0,0-1.32H12a.66.66,0,0,0,0,1.32Z" fill="#58bd7b"/><path d="M27.45,25.22h-.36a.67.67,0,0,0,0,1.33h.36a.67.67,0,0,0,0-1.33Z" fill="#58bd7b"/><path d="M12,26.55H24.77a.67.67,0,0,0,0-1.33H12a.67.67,0,0,0,0,1.33Z" fill="#58bd7b"/><path d="M34.48,2.55H12.14a.85.85,0,0,0-.85.85V6.16H8.53A.85.85,0,0,0,7.68,7V38.6a.85.85,0,0,0,.85.85H30.87a.85.85,0,0,0,.85-.85V35.84h2.76a.85.85,0,0,0,.85-.85V3.4A.85.85,0,0,0,34.48,2.55ZM30,37.75H9.38V7.86H30Zm3.61-3.61H31.72V7a.85.85,0,0,0-.85-.85H13V4.25H33.63Z" fill="#58bd7b"/></svg>