<svg id="LOGO" xmlns="http://www.w3.org/2000/svg" viewBox="0 0 42 42"><title>ic_history</title><path d="M14.49,30.11a3,3,0,1,0,3,3A3,3,0,0,0,14.49,30.11Zm0,4.71a1.7,1.7,0,1,1,1.69-1.7A1.7,1.7,0,0,1,14.49,34.82Z" fill="#58bd7b"/><path d="M23.12,32.57H19.48a.66.66,0,0,0,0,1.32h3.64a.66.66,0,0,0,0-1.32Z" fill="#58bd7b"/><path d="M12.33,11.53h1.92a.67.67,0,0,0,0-1.33H12.33a.67.67,0,0,0,0,1.33Z" fill="#58bd7b"/><path d="M21.66,11.53h5.76a.67.67,0,0,0,0-1.33H21.66a.67.67,0,0,0,0,1.33Z" fill="#58bd7b"/><path d="M17.63,14.37h9.79a.66.66,0,1,0,0-1.32H17.63a.66.66,0,1,0,0,1.32Z" fill="#58bd7b"/><path d="M12,19.6H27.45a.66.66,0,0,0,0-1.32H12a.66.66,0,0,0,0,1.32Z" fill="#58bd7b"/><path d="M12,23.07H27.45a.66.66,0,0,0,0-1.32H12a.66.66,0,0,0,0,1.32Z" fill="#58bd7b"/><path d="M27.45,25.22h-.36a.67.67,0,0,0,0,1.33h.36a.67.67,0,0,0,0-1.33Z" fill="#58bd7b"/><path d="M25.43,25.89a.66.66,0,0,0-.66-.67H12a.67.67,0,0,0,0,1.33H24.77A.66.66,0,0,0,25.43,25.89Z" fill="#58bd7b"/><rect x="8.53" y="7.01" width="22.34" height="31.59" fill="none" stroke="#58bd7b" stroke-linejoin="round" stroke-width="1.7"/><polyline points="12.14 6.63 12.14 3.4 34.48 3.4 34.48 34.99 30.87 34.99" fill="none" stroke="#58bd7b" stroke-linejoin="round" stroke-width="1.7"/></svg>