<svg id="LOGO" xmlns="http://www.w3.org/2000/svg" viewBox="0 0 42 42"><title>ic_pin_hospital</title><path d="M32.31,17.06a11.59,11.59,0,0,0-23.18-.27h0a1,1,0,0,0,0,.17v.1c0,.11,0,.22,0,.34.13,7.53,8.64,15.49,11.58,18.32C29,29,31.35,22.85,32,19.55c0-.12.05-.24.07-.35.07-.36.11-.68.14-.95h0A7,7,0,0,0,32.31,17.06Z" fill="#58bd7b"/><rect y="0.1" width="42" height="42" fill="none"/><path d="M20.72,10.15a7,7,0,1,0,7,7A7,7,0,0,0,20.72,10.15Zm0,13.3a6.35,6.35,0,1,1,6.34-6.35A6.36,6.36,0,0,1,20.72,23.45Z" fill="#fff"/><path d="M24.33,15.6H22.22V13.49a.3.3,0,0,0-.3-.31H19.51a.3.3,0,0,0-.3.31V15.6H17.1a.29.29,0,0,0-.3.3v2.41a.29.29,0,0,0,.3.3h2.11v2.11a.29.29,0,0,0,.3.3h2.41a.29.29,0,0,0,.3-.3V18.61h2.11a.3.3,0,0,0,.31-.3V15.9A.33.33,0,0,0,24.33,15.6ZM24,18H21.92a.3.3,0,0,0-.3.3v2.11H19.81V18.31a.29.29,0,0,0-.3-.3H17.4V16.2h2.11a.3.3,0,0,0,.3-.3V13.79h1.83V15.9a.3.3,0,0,0,.3.3h2.11V18Z" fill="#fff"/></svg>