<svg id="LOGO" xmlns="http://www.w3.org/2000/svg" viewBox="0 0 42 42"><title>ic_pin_accident</title><path d="M32.31,17a11.59,11.59,0,0,0-23.18-.27h0a1,1,0,0,0,0,.17V17c0,.11,0,.23,0,.34.13,7.54,8.64,15.49,11.58,18.32C29,28.94,31.35,22.75,32,19.45c0-.12.05-.23.07-.35.07-.35.11-.67.14-1h0A7,7,0,0,0,32.31,17Z" fill="#ed1b31"/><path d="M22.35,15.24a.31.31,0,1,0,0-.62H22l.72-.71a.31.31,0,0,0-.44-.44l-1.15,1.15H20a.31.31,0,0,0,0,.62Z" fill="#fff"/><path d="M24.67,27.32V20.67a.31.31,0,0,0-.62,0v6.65a.31.31,0,0,0,.62,0Z" fill="#fff"/><path d="M26.53,21.1a5.38,5.38,0,0,0-.39-2,5.06,5.06,0,0,0-1.88-2.33l-1-.64a4,4,0,1,0-5.68-.4,4.36,4.36,0,0,0,.86.74l-.42.3a13.45,13.45,0,0,0-4,4.52,1.39,1.39,0,0,0-.18.69v.23a1.45,1.45,0,0,0,.41,1,1.43,1.43,0,0,0,1,.41h1.38v3.72a.31.31,0,0,0,.62,0V23.6H20a1.25,1.25,0,0,0,1.22-1.41l.43-.58a14.32,14.32,0,0,0,2.19-4.12l.07-.2a4.48,4.48,0,0,1,1.63,2,4.78,4.78,0,0,1,.34,1.79v6.22a.31.31,0,0,0,.62,0ZM23.21,10.84l-5.86,3.07a3.15,3.15,0,0,1-.08-1.26l5.43-2.29A2.9,2.9,0,0,1,23.21,10.84ZM22,10,20,10.84l-1.21-.6A3.37,3.37,0,0,1,22,10Zm-3.8.7,1,.49-1.77.74A3.25,3.25,0,0,1,18.24,10.67Zm-.68,3.83,6-3.16a3.41,3.41,0,0,1-5.87,3.46C17.66,14.7,17.6,14.6,17.56,14.5ZM19.32,23H17.83l-.57-4.83.71-.59Zm-4.63-.24a.8.8,0,0,1-.24-.56V22a.87.87,0,0,1,.1-.39A12.82,12.82,0,0,1,16.7,18.7L17,21.13H16a.31.31,0,1,0,0,.62h1.05L17.2,23h-2A.8.8,0,0,1,14.69,22.75Zm5.78.05A.61.61,0,0,1,20,23H20l-.31-1.24H20a.62.62,0,0,1,.45.19A.61.61,0,0,1,20.47,22.8Zm.72-1.56-.24.31,0-.05a1.22,1.22,0,0,0-.89-.37H19.5l-1-4,.56-.39a4,4,0,0,0,3.68-.28l.65.43c0,.08,0,.19-.11.36A13.77,13.77,0,0,1,21.19,21.24Z" fill="#fff"/><rect width="42" height="42" fill="none"/></svg>