<svg id="LOGO" xmlns="http://www.w3.org/2000/svg" viewBox="0 0 18 18"><title>ic_small_verified</title><path d="M2.24,11.54c.26.22.47.5.45.68s0,.23,0,.34a3,3,0,0,0,3,3.08,2.9,2.9,0,0,0,.6-.07,1.06,1.06,0,0,1,.93.32,2.94,2.94,0,0,0,2.19,1,3,3,0,0,0,2.28-1.08.89.89,0,0,1,.91-.28,3,3,0,0,0,.84.13,3,3,0,0,0,3-3.08,3.31,3.31,0,0,0,0-.55,1.1,1.1,0,0,1,.33-.92,3.12,3.12,0,0,0-.16-4.63c-.26-.22-.47-.5-.45-.68s0-.23,0-.34a3,3,0,0,0-3-3.08,2.9,2.9,0,0,0-.6.07,1.06,1.06,0,0,1-.93-.32,2.94,2.94,0,0,0-4.38,0,1.06,1.06,0,0,1-.93.32,2.9,2.9,0,0,0-.6-.07,3,3,0,0,0-3,3.08,3.88,3.88,0,0,0,0,.48,1,1,0,0,1-.41.8,3.12,3.12,0,0,0-.06,4.82ZM5.38,9.27c.07-.12.24-.12.4,0l1.55,1.1a.52.52,0,0,0,.25.08A.66.66,0,0,0,8,10.23l5-5c.31-.34.61-.46.81-.33a.39.39,0,0,1,.17.25.48.48,0,0,1-.13.38L8,12.79a.41.41,0,0,1-.31.16.4.4,0,0,1-.34-.22L5.43,9.59a.33.33,0,0,1,0-.32Zm0,0" fill="#8fc33f"/></svg>