<svg id="LOGO" xmlns="http://www.w3.org/2000/svg" viewBox="0 0 24 24"><title>ic_small_more</title><path d="M14.82,11.8a2.69,2.69,0,1,0-2.69,2.69,2.69,2.69,0,0,0,2.69-2.69Zm-2.69,1.58a1.58,1.58,0,1,1,1.59-1.58,1.58,1.58,0,0,1-1.59,1.58Zm0,0" fill="#6c6c6c"/><path d="M3.75,9.11A2.69,2.69,0,1,0,6.44,11.8,2.7,2.7,0,0,0,3.75,9.11Zm0,4.27A1.58,1.58,0,1,1,5.33,11.8a1.58,1.58,0,0,1-1.58,1.58Zm0,0" fill="#6c6c6c"/><path d="M20.52,9.11a2.69,2.69,0,1,0,2.69,2.69,2.69,2.69,0,0,0-2.69-2.69Zm0,4.27A1.58,1.58,0,1,1,22.1,11.8a1.58,1.58,0,0,1-1.58,1.58Zm0,0" fill="#6c6c6c"/></svg>