<svg id="LOGO" xmlns="http://www.w3.org/2000/svg" viewBox="0 0 42 42"><title>ic_task_luggage</title><path d="M15.25,36.37H7.77A2.88,2.88,0,0,1,4.9,33.49V15.09a2.88,2.88,0,0,1,2.87-2.88H20.42a2.88,2.88,0,0,1,2.88,2.88v.57H22.15v-.57a1.73,1.73,0,0,0-1.73-1.73H7.77a1.73,1.73,0,0,0-1.72,1.73v18.4a1.73,1.73,0,0,0,1.72,1.73h7.48Z" fill="#7f7f7f"/><path d="M17.55,8.19h-6.9a1.73,1.73,0,1,1,0-3.45h6.9a1.73,1.73,0,0,1,0,3.45Zm-6.9-2.3a.58.58,0,1,0,0,1.15h6.9a.58.58,0,0,0,0-1.15Z" fill="#7f7f7f"/><rect x="11.22" y="7.61" width="1.15" height="5.18" fill="#7f7f7f"/><rect x="15.82" y="7.61" width="1.15" height="5.18" fill="#7f7f7f"/><path d="M7.49,39.24a2,2,0,1,1,2-2A2,2,0,0,1,7.49,39.24Zm0-2.87a.86.86,0,1,0,.86.86A.86.86,0,0,0,7.49,36.37Z" fill="#7f7f7f"/><path d="M5.47,23.71a.61.61,0,0,1-.31-.09.58.58,0,0,1-.26-.48V19.69a.58.58,0,0,1,.35-.53l4-1.72a.54.54,0,0,1,.45,0,.57.57,0,0,1,.31.32l1.15,2.88a.55.55,0,0,1-.3.73l-5.17,2.3A.52.52,0,0,1,5.47,23.71Zm.58-3.64v2.18l3.86-1.71-.73-1.81Z" fill="#7f7f7f"/><path d="M20.71,39.24a2,2,0,1,1,2-2A2,2,0,0,1,20.71,39.24Zm0-2.87a.86.86,0,1,0,.87.86A.86.86,0,0,0,20.71,36.37Z" fill="#7f7f7f"/><path d="M36.53,36.37H16.4a2.88,2.88,0,0,1-2.88-2.88V22a2.88,2.88,0,0,1,2.88-2.88H36.53A2.88,2.88,0,0,1,39.4,22v11.5A2.88,2.88,0,0,1,36.53,36.37ZM16.4,20.26A1.74,1.74,0,0,0,14.67,22v11.5a1.74,1.74,0,0,0,1.73,1.73H36.53a1.73,1.73,0,0,0,1.72-1.73V22a1.73,1.73,0,0,0-1.72-1.73Z" fill="#7f7f7f"/><path d="M29.63,19.69H28.48V18h-4v1.73H23.3v-2.3a.58.58,0,0,1,.58-.58h5.17a.58.58,0,0,1,.58.58Z" fill="#7f7f7f"/><path d="M31.93,19.69H30.78v-2.3a1.74,1.74,0,0,0-1.73-1.73H23.88a1.73,1.73,0,0,0-1.73,1.73v2.3H21v-2.3a2.88,2.88,0,0,1,2.88-2.88h5.17a2.88,2.88,0,0,1,2.88,2.88Z" fill="#7f7f7f"/><path d="M28.48,26.59H22.73a.59.59,0,0,1-.52-.31.57.57,0,0,1,.05-.6l2.87-4a.59.59,0,0,1,.94,0l2.87,4a.59.59,0,0,1,0,.6A.58.58,0,0,1,28.48,26.59Zm-4.64-1.15h3.52L25.6,23Z" fill="#7f7f7f"/><path d="M34,33a4.24,4.24,0,0,1-1.25-.2,3.81,3.81,0,0,1-2-1.5,2.63,2.63,0,0,1-.36-2.3,3.2,3.2,0,0,1,4.17-1.67,3.21,3.21,0,0,1,2.39,3.8A3,3,0,0,1,34,33Zm-.74-4.72a1.79,1.79,0,0,0-1.81,1.07h0a1.54,1.54,0,0,0,.23,1.31,2.62,2.62,0,0,0,1.42,1,2.07,2.07,0,0,0,2.72-.92c.3-.91-.44-2-1.65-2.35A3,3,0,0,0,33.28,28.3Z" fill="#7f7f7f"/><path d="M16.11,39.24a2,2,0,1,1,2-2A2,2,0,0,1,16.11,39.24Zm0-2.87a.86.86,0,1,0,.86.86A.86.86,0,0,0,16.11,36.37Z" fill="#7f7f7f"/><path d="M36.81,39.24a2,2,0,1,1,2-2A2,2,0,0,1,36.81,39.24Zm0-2.87a.86.86,0,1,0,.87.86A.86.86,0,0,0,36.81,36.37Z" fill="#7f7f7f"/><rect x="18.7" y="31.19" width="1.15" height="4.6" fill="#7f7f7f"/><path d="M19.85,27.74H18.7V20.26H17.55v6.33H16.4v-6.9a.58.58,0,0,1,.57-.58h2.3a.58.58,0,0,1,.58.58Z" fill="#7f7f7f"/><rect x="16.4" y="29.46" width="1.15" height="6.33" fill="#7f7f7f"/><rect x="35.38" y="31.76" width="1.15" height="4.03" fill="#7f7f7f"/><path d="M36.53,28.89H35.38V20.26H34.23v7.48H33.08v-8a.57.57,0,0,1,.57-.58H36a.58.58,0,0,1,.58.58Z" fill="#7f7f7f"/><rect x="33.08" y="32.34" width="1.15" height="3.45" fill="#7f7f7f"/><path d="M19.85,31.76a.54.54,0,0,1-.3-.08L13.8,28.23l.6-1,5.21,3.13.63-1.27-6.43-3.75.58-1,6.9,4a.58.58,0,0,1,.22.76l-1.15,2.3a.56.56,0,0,1-.35.29A.44.44,0,0,1,19.85,31.76Z" fill="#7f7f7f"/></svg>