<svg id="LOGO" xmlns="http://www.w3.org/2000/svg" viewBox="0 0 42 42"><title>ic_tasks</title><path d="M35.42,22.15l5.86-5.85L30.94,6l-5.85,5.86.52.52-5.29,2-4.22-1.7.81-.8L11.06,6,.72,16.36l5.86,5.85.77-.77L10.2,26a2.56,2.56,0,0,0-.27,1.15A2.59,2.59,0,0,0,10.7,29a2.55,2.55,0,0,0,1.74.76A2.62,2.62,0,0,0,15,32.24a2.62,2.62,0,0,0,2.51,2.51,2.64,2.64,0,0,0,.76,1.74,2.61,2.61,0,0,0,1.86.77h.2a2.58,2.58,0,0,0,1.19.29h0A2.63,2.63,0,0,0,24.09,35a2.64,2.64,0,0,0,2.51-2.51,2.61,2.61,0,0,0,1.74-.77A2.55,2.55,0,0,0,29.1,30a2.61,2.61,0,0,0,2.2-3.86l3.52-4.61ZM3.11,16.36l8-7.95,3.46,3.47L6.58,19.82Zm8.51,10.75a.93.93,0,0,1,.27-.65l.88-.88a.93.93,0,1,1,1.31,1.32l-.87.87a.92.92,0,0,1-1.32,0A.94.94,0,0,1,11.62,27.11Zm4.31.71a1,1,0,0,1,.66.27.94.94,0,0,1,0,1.32l-.87.87a.94.94,0,0,1-1.32,0,.93.93,0,0,1,0-1.31l.88-.88A.91.91,0,0,1,15.93,27.82Zm2.51,2.51a1,1,0,0,1,.66.27.94.94,0,0,1,0,1.32l-.88.87a.88.88,0,0,1-.65.27.91.91,0,0,1-.66-.27.93.93,0,0,1,0-1.31l.87-.88A1,1,0,0,1,18.44,30.33ZM21,32.84a.91.91,0,0,1,.66.27.94.94,0,0,1,0,1.32l-.88.87a.93.93,0,0,1-1.31,0,.91.91,0,0,1-.27-.66.88.88,0,0,1,.27-.65l.87-.88A.91.91,0,0,1,21,32.84Zm8.7-4.79a.89.89,0,0,1-.65.27.93.93,0,0,1-.64-.25l-2.31-2.3h0A.84.84,0,0,0,24.86,27h0l2.31,2.31a.93.93,0,0,1,0,1.29.91.91,0,0,1-.66.27.93.93,0,0,1-.64-.25l-2.3-2.31h0a.85.85,0,0,0-1.2,1.2l2.31,2.3a1,1,0,0,1,0,1.3.93.93,0,0,1-1.13.14,2.54,2.54,0,0,0-.71-1.29,2.61,2.61,0,0,0-1.74-.77,2.64,2.64,0,0,0-2.51-2.51A2.62,2.62,0,0,0,16,26.13a2.62,2.62,0,0,0-2.62-2.51,2.59,2.59,0,0,0-1.85.77l-.22.22L8.57,20.22l.89-.9L14.81,14l3.71,1.5-2.46,2.46a2.63,2.63,0,0,0,3.7,3.73l1.29-1.19,1.29-.34,1.26.77.51.31,5.37,5.34.17.18A.91.91,0,0,1,29.65,28.05Zm.51-3.19-5-5-2.55-1.55-2.4.62L18.6,20.44l0,0a1,1,0,0,1-.67.28.92.92,0,0,1-.66-.28.94.94,0,0,1,0-1.32l2.88-2.88,6.79-2.62,6.69,6.7Zm.78-16.51,8,8-3.47,3.46-7.94-7.94Z" fill="#57bc7a"/><path d="M6.3,16.57a.84.84,0,1,0,1.19,0A.84.84,0,0,0,6.3,16.57Z" fill="#57bc7a"/></svg>