<svg id="LOGO" xmlns="http://www.w3.org/2000/svg" viewBox="0 0 42 42"><title>ic_task_health</title><path d="M35.91,19.64V18.56a5.2,5.2,0,0,0-5-5.36,5.22,5.22,0,0,0-5,5.2h0V30a6.49,6.49,0,0,1-6.19,6.73A6.49,6.49,0,0,1,13.51,30V29c.85,0,1.77-.62,1.77-2.36V25.18a8.37,8.37,0,0,0,6.48-7.9V16.05H20.58l0-7.67a3,3,0,0,0-2.43-2.89,1.76,1.76,0,1,0,0,1.21,1.76,1.76,0,0,1,1.29,1.68l0,7.67H18.23V17.3a4.71,4.71,0,0,1-3.4,4.4,5.43,5.43,0,0,1-3.24,0A4.7,4.7,0,0,1,8.2,17.3V16.05H6.44V8.39a1.75,1.75,0,0,1,1.3-1.7,1.78,1.78,0,1,0,1-2.31,1.76,1.76,0,0,0-1,1.11,2.93,2.93,0,0,0-2.45,2.9v7.66H4.08v1.23a8.37,8.37,0,0,0,6.48,7.9v1.48c0,1.74.92,2.36,1.77,2.36v1a7.66,7.66,0,0,0,7.37,7.9A7.66,7.66,0,0,0,27.07,30V18.44h0a4,4,0,0,1,3.83-4.06,4,4,0,0,1,3.83,4.19v1.07a4.12,4.12,0,1,0,1.18,0Zm-19.45-13a.59.59,0,1,1,0-1.18.59.59,0,0,1,0,1.18ZM9.38,5.44a.59.59,0,0,1,0,1.18.59.59,0,1,1,0-1.18ZM5.26,17.28v-.05H7v.07a5.85,5.85,0,0,0,4.2,5.52,6.68,6.68,0,0,0,4,0A5.85,5.85,0,0,0,19.4,17.3v-.07h1.18v.05a7.22,7.22,0,0,1-6,6.86,8.33,8.33,0,0,1-2.49.12,7.54,7.54,0,0,1-.81-.12A7.22,7.22,0,0,1,5.26,17.28Zm6.48,9.38V25.41h.14l.18,0a7.87,7.87,0,0,0,.84,0h0a7.63,7.63,0,0,0,.84,0l.19,0h.14v1.25c0,.36-.06,1.18-.59,1.18H12.33C11.8,27.84,11.74,27,11.74,26.66Zm23.58,0a2.95,2.95,0,1,1,3-2.95A2.95,2.95,0,0,1,35.32,26.66Z" fill="#7f7f7f"/></svg>