<svg id="LOGO" xmlns="http://www.w3.org/2000/svg" viewBox="0 0 42 42"><title>ic_task_luggage</title><path d="M39.4,33.49V22a2.88,2.88,0,0,0-2.87-2.88h-4.6V17.39a2.88,2.88,0,0,0-2.88-2.88H23.88a2.59,2.59,0,0,0-.63.08,2.88,2.88,0,0,0-2.83-2.38H17v-4h.58a1.73,1.73,0,0,0,0-3.45h-6.9a1.73,1.73,0,1,0,0,3.45h.57v4H7.77A2.88,2.88,0,0,0,4.9,15.09v18.4A2.88,2.88,0,0,0,6.08,35.8a2,2,0,0,0-.61,1.43,2,2,0,0,0,4,0,2.05,2.05,0,0,0-.2-.86h5a2.05,2.05,0,0,0-.2.86,2,2,0,0,0,4,0,1.91,1.91,0,0,0-.2-.86h1a2.05,2.05,0,0,0-.2.86,2,2,0,0,0,4,0,1.92,1.92,0,0,0-.21-.86H35a2.05,2.05,0,0,0-.2.86,2,2,0,1,0,3.43-1.43A2.9,2.9,0,0,0,39.4,33.49Zm-5.17,1.73V33a3.7,3.7,0,0,0,1.15-.26v2.47Zm-14.38,0V31.76a.44.44,0,0,0,.16,0,.56.56,0,0,0,.35-.29l1.15-2.3a.58.58,0,0,0-.22-.76l-1.44-.84V20.26H33.08v6.91A2.88,2.88,0,0,0,30.38,29a2.63,2.63,0,0,0,.36,2.3,3.81,3.81,0,0,0,2,1.5l.31.07v2.33Zm-.24-4.84-4.94-3V25.87l5.57,3.24Zm-.91-3.5-1.15-.67V20.26H18.7Zm-2.3-1.34-1.73-1V22a1.74,1.74,0,0,1,1.73-1.73Zm-1.73,3.22,1.73,1v5.43a1.74,1.74,0,0,1-1.73-1.73Zm2.88,1.72,1.18.71h0v4H17.55ZM28.48,19.11h-4V18h4Zm4.64,12.61a2.62,2.62,0,0,1-1.42-1,1.54,1.54,0,0,1-.23-1.31h0a1.79,1.79,0,0,1,1.81-1.07,3,3,0,0,1,.91.15c1.21.39,2,1.44,1.65,2.35A2.07,2.07,0,0,1,33.12,31.72Zm2.26-11.46v7.48a4.51,4.51,0,0,0-.83-.39l-.32-.07v-7Zm-6.33-4.6a1.74,1.74,0,0,1,1.73,1.73v1.72H29.63V17.39a.58.58,0,0,0-.58-.58H23.88a.58.58,0,0,0-.58.58v1.72H22.15V17.39a1.73,1.73,0,0,1,1.73-1.73Zm-19-9.2a.58.58,0,0,1,.58-.57h6.9a.58.58,0,0,1,0,1.15h-6.9A.58.58,0,0,1,10.07,6.46Zm2.3,1.73h3.45v4H12.37ZM6.05,20.07l3.13-1.34.73,1.81L6.05,22.25Zm0,3.44,4.83-2.15a.55.55,0,0,0,.3-.73L10,17.75a.57.57,0,0,0-.31-.32.54.54,0,0,0-.45,0L6.05,18.82V15.09a1.73,1.73,0,0,1,1.72-1.73H20.42a1.73,1.73,0,0,1,1.73,1.73h0A2.88,2.88,0,0,0,21,17.39v1.72H16.4A2.88,2.88,0,0,0,13.52,22v11.5a2.91,2.91,0,0,0,.59,1.73H7.77a1.73,1.73,0,0,1-1.72-1.73ZM7.49,38.09a.86.86,0,1,1,.86-.86A.87.87,0,0,1,7.49,38.09Zm8.62,0a.86.86,0,1,1,0-1.72.86.86,0,0,1,0,1.72Zm5.47-.86a.87.87,0,1,1-.87-.86A.87.87,0,0,1,21.58,37.23Zm15.23.86a.86.86,0,1,1,.87-.86A.87.87,0,0,1,36.81,38.09Zm1.44-4.6a1.73,1.73,0,0,1-1.72,1.73V31.91a2.64,2.64,0,0,0,.41-.76,2.7,2.7,0,0,0-.41-2.34V20.26A1.73,1.73,0,0,1,38.25,22Z" fill="#7f7f7f"/><path d="M26.07,21.66a.59.59,0,0,0-.94,0l-2.87,4a.57.57,0,0,0-.05.6.59.59,0,0,0,.52.31h5.75a.58.58,0,0,0,.51-.31.59.59,0,0,0,0-.6Zm-2.23,3.78L25.6,23l1.76,2.46Z" fill="#7f7f7f"/></svg>